<svg width="169" height="40" viewBox="0 0 169 40" fill="none" xmlns="http://www.w3.org/2000/svg">
<path d="M10.0938 4.84375C8.25 3 6.21875 2.09375 3.96875 2.09375C3.96875 2.1875 3.5625 2.25 2.71875 2.34375C1.375 2.875 0.71875 4.09375 0.71875 5.96875V16.2188C0.71875 20.4375 0.84375 24.0625 1.09375 27.0938C1.46875 30.8438 2.21875 32.7188 3.34375 32.7188H5.34375L5.59375 32.5938C6.4375 32.5938 6.84375 27.75 6.84375 18.0938V11.2188C12.8438 17.3125 16.3125 20.3438 17.2188 20.3438H17.3438C17.5312 20.3438 17.6875 20.3125 17.8438 20.2188C18 20.3125 18.1562 20.3438 18.3438 20.3438H18.5938C19.9688 20.3438 23.4375 17.0625 28.9688 10.4688H29.0938C29.5 12.3125 29.75 13.2188 29.8438 13.2188C33 25.4688 35.2188 31.5938 36.4688 31.5938H40.4688C41.7188 30.6875 42.3438 30 42.3438 29.4688V27.9688C38.2188 9.71875 34.8438 0.59375 32.2188 0.59375H29.7188C27.6875 0.59375 23.75 4.4375 17.8438 12.0938C13 7.28125 10.4375 4.875 10.0938 4.84375ZM81.4688 15.5312C76.6562 8.40625 71.4688 4.84375 65.875 4.84375C65.4062 4.84375 62.4375 5.59375 56.9688 7.0625C51.625 9.6875 48.9688 14.4375 48.9688 21.3125C48.9688 23.9062 49.5625 26.4375 50.75 28.875C54.0938 35.7188 59.4375 39.125 66.7812 39.125C77.75 39.125 83.25 33.7812 83.25 23.0938C83.25 21.9375 82.6562 19.4375 81.4688 15.5312ZM67.7188 32.0938C62.0625 32.0938 58.6562 28.8125 57.5 22.2188C57.5 21.6875 57.625 21.1875 57.875 20.75C57.875 17.1875 60.3125 14.75 65.1875 13.4688C72.25 15.0312 75.7812 18.4375 75.7812 23.6875C75.7812 29.2812 73.0938 32.0938 67.7188 32.0938ZM120.594 15.5312C115.781 8.40625 110.594 4.84375 105 4.84375C104.531 4.84375 101.562 5.59375 96.0938 7.0625C90.75 9.6875 88.0938 14.4375 88.0938 21.3125C88.0938 23.9062 88.6875 26.4375 89.875 28.875C93.2188 35.7188 98.5625 39.125 105.906 39.125C116.875 39.125 122.375 33.7812 122.375 23.0938C122.375 21.9375 121.781 19.4375 120.594 15.5312ZM106.844 32.0938C101.188 32.0938 97.7812 28.8125 96.625 22.2188C96.625 21.6875 96.75 21.1875 97 20.75C97 17.1875 99.4375 14.75 104.312 13.4688C111.375 15.0312 114.906 18.4375 114.906 23.6875C114.906 29.2812 112.219 32.0938 106.844 32.0938ZM134.781 31.0312C135.625 28.1562 136.406 22.25 137.156 13.2812L148.656 24.6562C154.531 30.3125 158.156 33.1562 159.531 33.1562C159.719 33.1562 159.875 33.125 160.031 33.0312C160.188 33.125 160.312 33.1562 160.406 33.1562C161.375 33.1562 162.438 32.7812 163.531 32.0312C163.938 28.5625 164.188 26.8125 164.281 26.7812C164.281 23.875 165.562 17.5938 168.156 7.90625C168.156 6.65625 167.406 5.75 165.906 5.15625H162.781C160.969 5.15625 159.312 11.25 157.781 23.4062C157.281 23.3438 152.906 19.0938 144.656 10.6562C139.25 5.0625 135.531 2.28125 133.531 2.28125H132.031C130.188 2.28125 129.281 11.4375 129.281 29.7812C129.594 31.6875 130.219 32.6562 131.156 32.6562H133.281C133.875 32.6562 134.375 32.125 134.781 31.0312Z" fill="#FF78FA"/>
</svg>
